<svg xmlns="http://www.w3.org/2000/svg" viewBox="0 0 1008.73 423.3"><defs><style>.cls-1{fill:#231f20;}.cls-2{fill:none;}</style></defs><g id="Layer_2" data-name="Layer 2"><g id="Layer_1-2" data-name="Layer 1"><path class="cls-1" d="M198.94,175.66H170.7a3.64,3.64,0,0,0-3.65,3.65V188a3.65,3.65,0,0,0,3.65,3.66h15.85v39h-31V93.11a4.45,4.45,0,0,0-4.45-4.45H144a4.45,4.45,0,0,0-4.45,4.45V233.64a3.6,3.6,0,0,0-.13.93v8.17a3.93,3.93,0,0,0,3.92,3.92h55.6a3.61,3.61,0,0,0,3.61-3.61V179.27A3.61,3.61,0,0,0,198.94,175.66Z"/><path class="cls-1" d="M252.88,174.82H222a3.52,3.52,0,0,0-3.52,3.52v64a3.51,3.51,0,0,0,3.52,3.51h9a3.52,3.52,0,0,0,3.52-3.51V190.82h18.43a3.38,3.38,0,0,0,3.38-3.38v-9.23A3.39,3.39,0,0,0,252.88,174.82Z"/><path class="cls-1" d="M322.87,173.76h-9a3.51,3.51,0,0,0-3.51,3.51v51.11H283.16V176.9a3.51,3.51,0,0,0-3.52-3.52h-9a3.51,3.51,0,0,0-3.52,3.52v64a3.51,3.51,0,0,0,3.52,3.52h39.71v83.86a3.52,3.52,0,0,0,3.51,3.52h9a3.53,3.53,0,0,0,3.52-3.52v-151A3.52,3.52,0,0,0,322.87,173.76Z"/><path class="cls-1" d="M404.44,231.72l-21.5-21.51L404,189.15a2.79,2.79,0,0,0,0-4l-7.36-7.37a2.79,2.79,0,0,0-3.95,0L371.62,198.9l-21.5-21.51a2.7,2.7,0,0,0-3.81,0l-7.5,7.5a2.69,2.69,0,0,0,0,3.82l21.5,21.5-21.06,21.07a2.79,2.79,0,0,0,0,3.95l7.36,7.36a2.78,2.78,0,0,0,3.95,0l21.06-21.06L393.13,243a2.69,2.69,0,0,0,3.81,0l7.5-7.51A2.7,2.7,0,0,0,404.44,231.72Z"/><path class="cls-1" d="M473.57,176.64h-9a3.51,3.51,0,0,0-3.52,3.51v51.11H433.86V179.78a3.52,3.52,0,0,0-3.51-3.52h-9a3.53,3.53,0,0,0-3.52,3.52v64a3.52,3.52,0,0,0,3.52,3.51h39.71v83.86a3.52,3.52,0,0,0,3.52,3.52h9a3.53,3.53,0,0,0,3.52-3.52v-151A3.52,3.52,0,0,0,473.57,176.64Z"/><path class="cls-1" d="M518.54,216.94l-15.29-8.82a2.09,2.09,0,0,0-2.08,0l-15.28,8.82a2.09,2.09,0,0,0-1,1.8v17.65a2.09,2.09,0,0,0,1,1.8L501.17,247a2.09,2.09,0,0,0,2.08,0l15.29-8.82a2.09,2.09,0,0,0,1-1.8V218.74A2.09,2.09,0,0,0,518.54,216.94Zm-2.69,14.27a2.07,2.07,0,0,1-1,1.8l-9.14,5.28a2.09,2.09,0,0,1-2.08,0L494.45,233a2.09,2.09,0,0,1-1-1.8V220.65a2.09,2.09,0,0,1,1-1.8l9.14-5.28a2.09,2.09,0,0,1,2.08,0l9.14,5.28a2.07,2.07,0,0,1,1,1.8Z"/><rect class="cls-1" x="548.11" y="172.12" width="16" height="71" rx="3.52"/><rect class="cls-1" x="557.86" y="162.37" width="16" height="35.5" rx="3.38" transform="translate(745.97 -385.74) rotate(90)"/><rect class="cls-1" x="538.36" y="217.81" width="16" height="35.5" rx="3.38" transform="translate(781.91 -310.8) rotate(90)"/><rect class="cls-1" x="592.15" y="171.42" width="16" height="158" rx="4.45"/><rect class="cls-1" x="639.15" y="171.42" width="16" height="71" rx="3.61"/><rect class="cls-1" x="615.58" y="147.86" width="16" height="63.12" rx="3.92" transform="translate(444.16 803.01) rotate(-90)"/><rect class="cls-1" x="629.4" y="216.67" width="16" height="35.5" rx="3.65" transform="translate(402.97 871.82) rotate(-90)"/><rect class="cls-1" x="813.97" y="172.12" width="16" height="71" rx="3.52"/><rect class="cls-1" x="833.64" y="152.45" width="16" height="55.34" rx="3.38" transform="translate(1021.76 -661.52) rotate(90)"/><rect class="cls-1" x="833.64" y="207.45" width="16" height="55.34" rx="3.38" transform="translate(1076.76 -606.52) rotate(90)"/><rect class="cls-1" x="829.71" y="183.87" width="16" height="47.49" rx="3.38" transform="translate(1045.33 -630.1) rotate(90)"/><rect class="cls-1" x="712.81" y="171.42" width="16" height="71" rx="4.45" transform="translate(1441.62 413.85) rotate(-180)"/><rect class="cls-1" x="665.81" y="171.42" width="16" height="71" rx="3.61" transform="translate(1347.62 413.85) rotate(-180)"/><rect class="cls-1" x="689.37" y="147.86" width="16" height="63.12" rx="3.92" transform="translate(517.95 876.8) rotate(-90)"/><rect class="cls-1" x="675.56" y="216.67" width="16" height="35.5" rx="3.65" transform="translate(449.14 917.98) rotate(-90)"/><rect class="cls-1" x="742.6" y="171.42" width="16" height="71" rx="3.52"/><rect class="cls-1" x="762.27" y="151.75" width="16" height="55.34" rx="3.38" transform="translate(949.69 -590.85) rotate(90)"/><rect class="cls-1" x="762.27" y="206.75" width="16" height="55.34" rx="3.38" transform="translate(1004.69 -535.85) rotate(90)"/><rect class="cls-2" width="1008.73" height="423.3"/></g></g></svg>